<svg width="155" height="31" viewBox="0 0 155 31" fill="none" xmlns="http://www.w3.org/2000/svg">
<path d="M-1.60933e-06 30.8V1.99999H4.44L16.4 16.24L28.36 1.99999H32.8V30.8H29.56V5.67999L16.4 21.32L3.24 5.67999V30.8H-1.60933e-06ZM41.7494 30.8C40.8694 30.8 40.056 30.5867 39.3094 30.16C38.5894 29.7067 38.0027 29.12 37.5494 28.4C37.1227 27.6533 36.9094 26.84 36.9094 25.96V12.44C36.9094 11.56 37.1227 10.76 37.5494 10.04C38.0027 9.29332 38.5894 8.70665 39.3094 8.27999C40.056 7.82665 40.8694 7.59999 41.7494 7.59999H55.6694C56.576 7.59999 57.3894 7.82665 58.1094 8.27999C58.856 8.70665 59.4427 9.29332 59.8694 10.04C60.3227 10.76 60.5494 11.56 60.5494 12.44V25.96C60.5494 26.84 60.3227 27.6533 59.8694 28.4C59.4427 29.12 58.856 29.7067 58.1094 30.16C57.3894 30.5867 56.576 30.8 55.6694 30.8H41.7494ZM41.7494 27.52H55.6694C56.096 27.52 56.456 27.3733 56.7494 27.08C57.0694 26.76 57.2294 26.3867 57.2294 25.96V12.44C57.2294 12.0133 57.0694 11.6533 56.7494 11.36C56.456 11.04 56.096 10.88 55.6694 10.88H41.7494C41.3227 10.88 40.9494 11.04 40.6294 11.36C40.336 11.6533 40.1894 12.0133 40.1894 12.44V25.96C40.1894 26.3867 40.336 26.76 40.6294 27.08C40.9494 27.3733 41.3227 27.52 41.7494 27.52ZM75.6969 30.8L62.8969 7.59999H66.7369L77.6169 27.6L88.4969 7.59999H92.3369L79.4969 30.8H75.6969ZM95.7384 30.8V7.59999H99.0184V30.8H95.7384ZM95.7384 3.27999V-1.38283e-05H99.0184V3.27999H95.7384ZM108.859 30.8C107.979 30.8 107.165 30.5867 106.419 30.16C105.699 29.7067 105.112 29.12 104.659 28.4C104.232 27.6533 104.019 26.84 104.019 25.96V12.44C104.019 11.56 104.232 10.76 104.659 10.04C105.112 9.29332 105.699 8.70665 106.419 8.27999C107.165 7.82665 107.979 7.59999 108.859 7.59999H122.779C123.685 7.59999 124.499 7.82665 125.219 8.27999C125.965 8.70665 126.552 9.29332 126.979 10.04C127.432 10.76 127.659 11.56 127.659 12.44V25.96C127.659 26.84 127.432 27.6533 126.979 28.4C126.552 29.12 125.965 29.7067 125.219 30.16C124.499 30.5867 123.685 30.8 122.779 30.8H108.859ZM108.859 27.52H122.779C123.205 27.52 123.565 27.3733 123.859 27.08C124.179 26.76 124.339 26.3867 124.339 25.96V12.44C124.339 12.0133 124.179 11.6533 123.859 11.36C123.565 11.04 123.205 10.88 122.779 10.88H108.859C108.432 10.88 108.059 11.04 107.739 11.36C107.445 11.6533 107.299 12.0133 107.299 12.44V25.96C107.299 26.3867 107.445 26.76 107.739 27.08C108.059 27.3733 108.432 27.52 108.859 27.52ZM131.248 30.8V7.59999H150.048C150.928 7.59999 151.728 7.82665 152.448 8.27999C153.195 8.70665 153.781 9.29332 154.208 10.04C154.661 10.76 154.888 11.56 154.888 12.44V30.8H151.608V12.44C151.608 12.0133 151.448 11.6533 151.128 11.36C150.835 11.04 150.475 10.88 150.048 10.88H136.128C135.701 10.88 135.328 11.04 135.008 11.36C134.688 11.6533 134.528 12.0133 134.528 12.44V30.8H131.248Z" fill="white"/>
</svg>
